<?xml version="1.0" encoding="UTF-8" standalone="no"?>
<!DOCTYPE svg PUBLIC "-//W3C//DTD SVG 1.1//EN" "http://www.w3.org/Graphics/SVG/1.1/DTD/svg11.dtd">
<svg xmlns="http://www.w3.org/2000/svg" version="1.1" viewBox="0.00 0.00 1348.00 1239.00">
<g stroke-width="2.00" fill="none" stroke-linecap="butt">
<path stroke="#f2e8f6" vector-effect="non-scaling-stroke" d="
  M 790.56 11.04
  Q 790.08 12.40 789.08 12.52
  Q 788.70 12.57 788.35 12.74
  C 745.79 33.93 704.34 56.93 662.68 79.79
  Q 644.19 89.93 638.19 93.15
  C 584.83 121.77 522.65 146.53 463.23 162.98
  C 398.56 180.89 331.56 191.52 261.65 194.82
  Q 253.67 195.19 241.83 195.36
  Q 231.94 195.51 222.01 195.74"
/>
<path stroke="#ecdaf3" vector-effect="non-scaling-stroke" d="
  M 885.80 37.27
  Q 885.88 37.44 885.88 37.62
  Q 885.86 38.11 885.39 38.27
  Q 878.43 40.62 874.26 42.36
  C 828.28 61.48 783.94 84.24 740.42 108.39
  Q 707.20 126.83 673.71 144.71
  Q 487.54 244.11 276.23 256.12
  C 265.21 256.75 254.05 257.46 243.25 257.60
  Q 207.88 258.05 171.99 256.30"
/>
<path stroke="#e4c8ee" vector-effect="non-scaling-stroke" d="
  M 970.03 75.20
  C 969.45 75.39 969.17 75.71 968.62 75.86
  Q 945.30 82.01 922.58 90.13
  C 884.16 103.86 843.80 122.97 811.25 140.19
  C 772.50 160.70 717.35 192.60 669.60 216.08
  Q 614.97 242.94 555.68 263.56
  Q 524.11 274.54 488.25 284.44
  Q 444.36 296.56 401.12 303.86
  C 393.92 305.07 382.17 307.23 372.62 308.56
  Q 345.12 312.41 317.48 315.06
  Q 234.83 322.98 152.01 317.03
  Q 142.91 316.38 133.78 315.71"
/>
<path stroke="#f2e8f6" vector-effect="non-scaling-stroke" d="
  M 999.03 1147.03
  Q 970.58 1107.73 942.15 1078.35
  Q 918.02 1053.41 894.77 1034.44
  C 845.93 994.59 786.45 963.73 724.99 949.57
  Q 701.91 944.25 690.00 942.47
  C 659.82 937.94 627.16 936.82 592.97 939.07
  C 562.97 941.04 532.75 946.38 503.52 953.31
  C 470.11 961.23 437.43 971.40 409.75 981.24
  C 349.40 1002.69 287.84 1029.88 229.05 1050.73"
/>
<path stroke="#9f93a1" vector-effect="non-scaling-stroke" d="
  M 645.74 423.42
  Q 656.37 423.34 667.11 422.34
  Q 673.75 421.72 692.24 423.42
  Q 722.36 426.19 752.02 432.11
  C 758.16 433.34 764.49 435.13 770.74 436.73
  Q 772.36 437.15 774.64 436.64
  A 1.37 1.34 -77.5 0 0 775.42 436.13
  Q 777.36 433.53 776.24 431.03
  C 771.31 420.03 699.92 412.78 686.84 411.38
  Q 678.44 410.48 669.12 410.60
  Q 660.18 410.71 651.25 410.77
  C 647.64 410.79 646.22 410.99 643.12 408.97
  Q 640.47 407.25 636.98 408.25
  Q 636.50 408.39 636.24 408.82
  Q 634.28 412.01 630.46 412.39
  Q 559.74 419.36 492.77 443.01
  Q 488.35 444.56 476.50 449.66
  Q 469.58 452.64 466.29 454.91
  C 463.09 457.11 455.93 462.44 455.60 466.66
  C 455.08 473.33 458.53 478.30 463.77 481.98
  Q 481.20 494.24 498.39 506.84
  C 515.44 519.32 529.04 529.86 539.33 542.66
  C 554.72 561.79 567.11 582.42 574.98 605.77
  C 582.78 628.91 587.15 654.37 589.44 678.50
  Q 590.64 691.15 590.23 698.00
  Q 587.85 737.55 585.49 777.11
  Q 585.46 777.58 585.74 777.95
  C 590.75 784.58 595.26 778.78 595.82 773.19
  Q 601.47 717.69 607.18 662.20
  C 610.01 634.67 613.95 607.20 617.62 579.77
  C 622.74 541.53 630.32 503.49 637.12 465.52
  Q 640.87 444.59 645.27 423.81
  A 0.49 0.48 -84.1 0 1 645.74 423.42"
/>
<path stroke="#9f93a1" vector-effect="non-scaling-stroke" d="
  M 286.46 620.04
  Q 286.77 619.48 286.95 620.10
  Q 288.49 625.47 293.72 625.97
  C 299.33 626.50 301.41 625.83 304.66 620.91
  Q 311.32 610.82 316.80 600.03
  C 317.52 598.62 318.72 597.27 319.68 596.08
  Q 320.31 595.31 320.38 596.30
  C 321.85 617.45 340.63 630.61 359.81 617.06
  C 366.58 612.27 375.19 605.07 378.80 597.52
  Q 380.61 593.72 380.24 591.75
  C 379.59 588.25 376.07 588.57 373.70 590.18
  Q 371.63 591.58 368.19 596.06
  C 363.29 602.46 355.77 610.48 347.99 612.71
  C 336.11 616.12 330.26 603.89 329.77 594.49
  C 329.49 589.03 331.27 573.17 321.88 574.87
  A 1.29 1.28 -74.4 0 0 321.13 575.30
  Q 317.97 578.93 315.14 583.91
  C 308.22 596.10 304.81 603.94 298.19 612.35
  Q 297.73 612.94 297.75 612.19
  Q 298.06 601.13 302.88 591.16
  C 305.99 584.71 315.00 568.29 324.02 567.98
  C 329.91 567.78 331.28 574.83 336.99 574.55
  Q 339.17 574.44 339.51 572.51
  C 340.46 567.02 333.15 560.80 328.90 559.35
  C 311.77 553.50 297.87 575.28 292.48 587.95
  C 290.93 591.62 289.71 595.03 287.48 598.45
  C 282.75 605.68 278.49 614.46 271.78 627.13
  C 271.05 628.53 269.87 629.99 269.18 631.24
  Q 244.60 675.87 219.76 720.35
  C 216.39 726.39 211.71 734.83 205.50 738.29
  C 195.73 743.73 191.23 722.66 190.16 717.27
  C 187.52 703.88 186.63 691.11 187.46 676.99
  Q 187.83 670.71 188.01 661.99
  Q 188.33 646.69 190.36 631.49
  C 193.05 611.33 195.61 590.86 199.74 570.94
  C 210.41 519.50 223.36 468.13 240.57 418.46
  C 243.99 408.59 233.18 404.97 228.50 412.74
  Q 225.89 417.08 223.03 424.51
  Q 217.84 437.95 213.59 451.72
  Q 201.45 491.00 192.00 531.01
  C 186.73 553.31 182.85 575.66 179.28 599.01
  C 173.43 637.25 170.56 677.24 177.36 715.24
  C 179.03 724.62 183.82 742.12 192.27 747.69
  C 210.07 759.41 228.39 727.08 234.55 715.32
  C 251.34 683.27 269.17 651.72 286.46 620.04"
/>
<path stroke="#9f93a1" vector-effect="non-scaling-stroke" d="
  M 645.38 612.04
  C 645.91 601.27 649.63 591.34 655.45 582.37
  C 659.05 576.81 666.72 565.23 674.72 568.63
  C 678.75 570.35 679.86 575.12 685.16 574.48
  A 2.31 2.31 0.0 0 0 687.14 572.66
  Q 687.53 570.79 686.49 568.73
  Q 681.71 559.35 672.01 558.46
  C 663.04 557.62 655.01 564.62 650.30 570.77
  C 640.60 583.43 631.42 602.87 634.48 619.00
  C 635.37 623.66 636.81 625.01 641.33 625.83
  Q 648.28 627.08 651.63 622.06
  Q 658.58 611.65 664.18 600.45
  C 664.92 598.98 666.13 597.54 667.07 596.28
  Q 667.81 595.30 667.92 596.52
  C 669.02 607.82 675.64 619.66 687.22 622.24
  C 699.22 624.92 708.65 616.41 717.05 609.41
  Q 717.43 609.10 717.45 609.58
  Q 717.91 619.01 717.36 628.42
  C 717.24 630.41 717.49 638.23 720.16 638.64
  Q 727.03 639.70 727.39 633.40
  C 728.06 621.61 729.21 612.74 735.89 602.75
  C 739.15 597.86 741.56 596.92 747.25 596.81
  C 755.00 596.67 762.90 597.61 770.55 596.24
  Q 771.08 596.14 771.11 596.68
  Q 771.43 602.60 771.76 608.54
  C 772.07 614.21 771.40 623.02 772.71 630.37
  A 2.63 2.62 -27.3 0 1 771.96 632.70
  Q 759.09 645.34 746.22 658.48
  Q 726.64 678.47 714.08 707.17
  Q 709.32 718.05 708.03 723.25
  C 705.71 732.59 705.42 740.24 706.06 749.63
  Q 706.72 759.33 709.08 764.56
  C 712.60 772.35 719.63 779.26 728.35 780.17
  C 745.40 781.96 760.68 761.70 766.91 747.92
  Q 778.76 721.73 782.81 693.25
  C 785.74 672.61 786.34 651.83 786.37 631.03
  A 0.93 0.91 73.7 0 1 786.78 630.26
  Q 788.65 629.04 790.53 627.54
  Q 805.72 615.38 820.79 603.00
  A 0.30 0.29 70.5 0 1 821.27 603.23
  Q 821.25 610.85 826.69 616.33
  C 842.64 632.38 864.83 619.33 878.61 607.82
  Q 882.77 604.35 887.02 600.77
  Q 887.50 600.37 887.49 600.99
  C 887.37 627.03 886.98 652.99 888.78 679.00
  C 889.02 682.52 889.40 686.62 892.40 688.90
  C 895.14 690.98 898.77 690.97 899.84 686.98
  Q 900.88 683.07 900.67 680.36
  C 900.03 672.41 899.25 664.43 899.13 656.53
  Q 898.64 622.64 899.70 588.76
  C 899.78 586.22 900.34 583.11 900.30 580.75
  Q 900.11 569.88 899.90 559.00
  C 899.84 555.89 900.78 552.90 900.70 549.99
  Q 900.54 543.98 900.81 541.25
  Q 903.69 512.00 906.54 482.79
  Q 906.56 482.52 906.83 482.47
  Q 932.72 477.24 959.00 473.79
  C 965.36 472.95 973.55 472.04 979.81 473.58
  Q 980.35 473.72 980.52 474.26
  L 980.73 474.98
  Q 980.88 475.47 981.39 475.48
  C 989.54 475.58 987.96 467.93 982.37 465.60
  Q 978.46 463.97 973.49 464.10
  C 953.44 464.62 933.43 468.40 913.75 472.03
  Q 911.65 472.42 909.56 472.43
  Q 908.98 472.43 908.92 471.85
  Q 908.50 467.46 912.77 466.96
  A 1.94 1.94 0.0 0 0 914.48 465.06
  Q 914.51 462.58 914.40 460.54
  C 914.18 456.76 915.30 452.20 912.47 449.06
  C 908.21 444.36 903.85 450.21 901.95 453.97
  Q 899.23 459.36 897.02 472.01
  Q 896.42 475.47 893.66 476.15
  Q 860.67 484.29 837.05 491.95
  C 830.74 494.00 803.94 504.12 802.59 510.80
  C 801.18 517.74 808.40 517.35 812.74 516.46
  Q 813.22 516.36 813.42 515.91
  C 814.06 514.47 814.50 511.73 816.02 511.05
  C 822.05 508.34 827.94 504.94 833.86 502.76
  Q 862.90 492.06 893.29 485.67
  Q 893.82 485.56 893.77 486.10
  Q 892.64 498.82 891.37 511.53
  C 890.98 515.38 890.89 520.14 890.39 524.44
  Q 889.61 531.04 889.48 534.10
  Q 888.39 558.66 888.36 583.25
  Q 888.36 585.60 888.18 587.99
  Q 888.15 588.48 887.82 588.86
  C 882.78 594.65 877.67 598.58 872.21 603.20
  C 866.41 608.11 853.24 615.47 844.26 615.27
  C 838.03 615.12 832.13 610.23 831.41 604.01
  Q 831.07 601.07 831.14 596.76
  Q 831.15 596.27 831.63 596.18
  C 842.58 594.25 856.13 584.19 859.91 573.66
  C 865.38 558.41 850.35 556.58 841.34 562.65
  C 831.00 569.62 823.29 579.95 821.13 592.42
  Q 821.04 592.94 820.63 593.26
  L 786.04 620.76
  Q 785.54 621.16 785.53 620.52
  C 785.44 613.55 784.28 561.06 775.00 560.95
  Q 767.12 560.85 764.29 568.01
  C 763.04 571.19 764.07 575.48 768.05 575.55
  A 1.95 1.79 -1.2 0 1 769.95 577.22
  L 770.72 588.74
  Q 770.77 589.36 770.16 589.24
  C 760.82 587.50 750.45 588.02 741.01 588.68
  C 735.41 589.07 733.39 593.11 729.57 596.17
  Q 728.65 596.91 728.83 595.75
  C 729.57 590.91 729.32 585.56 729.73 581.09
  C 730.15 576.36 731.44 568.43 727.65 567.08
  Q 722.21 565.15 720.74 570.35
  C 718.70 577.55 718.38 584.53 717.68 591.91
  Q 717.47 594.05 716.26 595.69
  C 711.20 602.54 700.54 613.61 691.23 613.38
  C 677.33 613.04 677.21 592.52 676.92 583.25
  C 676.70 576.41 671.20 570.32 666.04 578.56
  C 659.48 589.06 653.43 601.37 646.02 612.26
  Q 645.32 613.30 645.38 612.04"
/>
<path stroke="#9f93a1" vector-effect="non-scaling-stroke" d="
  M 778.62 511.85
  C 771.77 512.41 767.15 526.84 775.23 528.78
  C 778.82 529.64 783.18 526.53 783.63 522.75
  C 784.02 519.49 783.42 511.45 778.62 511.85"
/>
<path stroke="#9f93a1" vector-effect="non-scaling-stroke" d="
  M 1053.30 518.04
  C 1044.64 506.85 1033.84 531.86 1045.38 535.92
  C 1051.26 537.98 1056.77 532.96 1056.64 526.99
  Q 1056.54 522.23 1053.30 518.04"
/>
<path stroke="#9f93a1" vector-effect="non-scaling-stroke" d="
  M 990.60 595.92
  C 990.62 594.09 991.07 592.18 991.09 590.53
  Q 991.19 581.63 991.94 572.75
  C 992.33 568.07 989.73 565.90 985.19 566.78
  Q 984.69 566.87 984.37 567.27
  C 979.98 572.56 979.82 585.92 979.36 592.52
  A 3.07 3.07 0.0 0 1 978.26 594.67
  C 968.80 602.54 961.44 609.02 948.98 613.70
  C 940.38 616.93 931.60 615.60 927.65 606.24
  Q 926.51 603.54 927.17 596.50
  Q 927.21 596.06 927.65 595.99
  C 938.50 594.47 951.47 584.31 955.52 573.99
  C 957.47 569.04 958.08 562.64 952.36 560.33
  C 945.80 557.68 938.17 561.07 932.95 565.70
  C 924.19 573.47 915.99 585.24 916.76 597.18
  C 917.29 605.43 916.89 611.29 923.31 617.22
  C 940.50 633.12 965.29 616.61 978.70 604.34
  A 0.22 0.22 0.0 0 1 979.06 604.49
  Q 979.62 617.81 979.14 631.25
  C 979.08 633.08 979.71 638.59 982.26 638.77
  Q 988.90 639.22 989.11 632.63
  C 989.49 620.91 991.61 611.59 998.08 602.05
  C 1001.13 597.54 1004.54 596.77 1009.75 596.78
  Q 1017.97 596.80 1026.23 597.03
  Q 1026.72 597.04 1026.73 597.53
  C 1026.81 611.66 1027.33 627.83 1039.47 637.57
  C 1048.31 644.65 1060.80 639.76 1068.17 633.41
  Q 1080.54 622.75 1090.73 610.15
  Q 1091.54 609.15 1091.44 610.43
  C 1090.84 617.98 1091.59 626.20 1101.46 626.21
  Q 1106.01 626.22 1109.19 621.72
  C 1114.02 614.91 1117.32 608.65 1122.79 598.57
  Q 1123.52 597.22 1124.99 596.01
  Q 1125.46 595.62 1125.50 596.23
  Q 1126.34 608.91 1135.02 616.92
  C 1144.51 625.68 1155.53 623.62 1165.27 616.76
  Q 1174.77 610.07 1181.23 601.73
  C 1183.12 599.30 1186.82 593.35 1184.76 590.34
  C 1182.83 587.54 1179.05 589.67 1177.34 591.58
  C 1171.75 597.84 1168.85 602.24 1161.58 608.07
  C 1146.36 620.26 1135.87 609.35 1134.91 593.74
  C 1134.58 588.28 1136.27 573.37 1127.18 574.89
  Q 1126.72 574.97 1126.38 575.29
  Q 1124.62 576.98 1123.32 579.07
  C 1116.63 589.83 1110.98 601.09 1104.00 611.66
  Q 1102.72 613.60 1102.95 611.29
  C 1103.19 608.84 1103.25 606.04 1103.86 603.59
  Q 1108.03 586.75 1119.41 573.71
  C 1122.66 569.98 1128.15 566.18 1133.03 569.03
  C 1136.32 570.94 1139.19 576.62 1143.83 573.93
  Q 1144.24 573.69 1144.38 573.25
  Q 1145.20 570.78 1144.29 568.99
  C 1139.78 560.03 1130.73 556.08 1121.33 559.64
  C 1110.84 563.62 1101.81 578.26 1097.51 588.05
  Q 1096.52 590.29 1094.82 591.93
  Q 1088.26 598.25 1082.68 605.43
  C 1077.55 612.04 1058.14 634.76 1048.25 630.56
  C 1039.55 626.86 1039.00 604.91 1039.81 596.37
  C 1040.50 589.12 1042.31 580.10 1043.52 571.98
  C 1043.98 568.86 1044.53 564.98 1041.08 563.91
  Q 1035.92 562.29 1033.26 566.51
  C 1029.58 572.33 1028.16 581.43 1027.52 588.00
  Q 1027.48 588.50 1026.97 588.48
  Q 1014.86 587.82 1002.76 588.64
  C 997.07 589.02 994.74 593.43 991.22 596.23
  Q 990.58 596.73 990.60 595.92"
/>
<path stroke="#f2e8f6" vector-effect="non-scaling-stroke" d="
  M 1113.95 890.86
  C 1111.54 891.16 1108.34 891.19 1105.62 891.68
  A 0.27 0.27 0.0 0 0 1105.60 892.20
  Q 1112.75 893.99 1120.05 895.99
  C 1126.06 897.64 1130.36 900.48 1131.14 906.65
  Q 1132.27 915.50 1132.50 921.72
  Q 1132.72 927.73 1134.16 921.89
  Q 1135.54 916.35 1137.13 910.63
  C 1138.97 904.06 1141.58 899.51 1148.50 898.89
  Q 1156.64 898.16 1163.79 897.44
  Q 1168.00 897.02 1163.87 896.11
  Q 1157.98 894.81 1150.44 892.58
  C 1142.43 890.20 1140.68 885.91 1139.83 877.65
  Q 1139.15 871.12 1138.87 864.78
  Q 1138.82 863.57 1138.28 864.65
  C 1135.10 871.07 1135.36 880.39 1130.71 885.81
  C 1126.76 890.41 1119.49 890.17 1113.95 890.86"
/>
<path stroke="#9f93a1" vector-effect="non-scaling-stroke" d="
  M 478.67 461.36
  C 473.67 463.33 469.55 465.79 465.60 469.44
  Q 465.22 469.80 465.40 470.29
  Q 466.59 473.57 468.99 475.28
  Q 493.62 492.87 508.83 504.17
  C 534.61 523.34 557.19 547.70 571.77 576.95
  C 580.71 594.88 587.10 613.21 590.77 632.65
  C 591.88 638.53 592.43 645.71 594.94 651.14
  Q 595.25 651.82 595.33 651.08
  Q 599.49 610.32 605.22 569.75
  Q 608.50 546.54 612.09 523.38
  Q 619.71 474.21 630.97 425.94
  A 0.64 0.64 0.0 0 0 630.30 425.15
  Q 622.57 425.61 615.51 426.83
  Q 579.00 433.15 543.06 442.17
  Q 522.38 447.35 501.93 453.37
  Q 490.12 456.85 478.67 461.36"
/>
<path stroke="#9f93a1" vector-effect="non-scaling-stroke" d="
  M 852.39 568.46
  C 844.11 571.32 837.29 579.31 834.04 587.27
  Q 833.71 588.07 834.47 587.66
  C 841.20 583.99 851.99 577.36 852.77 568.75
  A 0.29 0.28 -7.4 0 0 852.39 568.46"
/>
<path stroke="#9f93a1" vector-effect="non-scaling-stroke" d="
  M 720.70 710.46
  Q 712.96 728.79 713.51 748.75
  C 713.80 758.85 719.32 773.69 732.15 771.34
  C 740.35 769.84 747.84 760.39 751.88 753.55
  C 763.81 733.37 768.86 708.57 771.02 685.50
  Q 772.97 664.61 772.82 643.67
  A 0.23 0.23 0.0 0 0 772.44 643.49
  Q 767.16 647.61 762.49 652.49
  C 751.63 663.82 740.41 676.46 732.20 689.85
  C 728.01 696.69 723.85 703.02 720.70 710.46"
/>
<path stroke="#9f93a1" vector-effect="non-scaling-stroke" d="
  M 930.36 587.61
  C 936.51 584.36 948.23 576.97 948.55 568.92
  Q 948.58 568.35 948.03 568.53
  C 939.66 571.30 933.41 579.45 929.85 587.12
  Q 929.38 588.13 930.36 587.61"
/>
<path stroke="#ecdaf3" vector-effect="non-scaling-stroke" d="
  M 939.73 1179.31
  C 903.72 1129.75 857.37 1083.35 804.24 1052.34
  C 750.36 1020.88 688.40 1004.37 625.51 1004.96
  C 617.62 1005.03 609.90 1004.91 602.01 1005.61
  Q 596.14 1006.14 590.27 1006.64
  C 541.97 1010.75 494.12 1022.95 448.43 1038.81
  C 407.74 1052.94 370.51 1067.73 326.55 1085.55
  Q 318.24 1088.92 307.95 1092.90
  Q 296.68 1097.25 285.17 1101.85"
/>
<path stroke="#e4c8ee" vector-effect="non-scaling-stroke" d="
  M 875.05 1205.52
  C 839.64 1160.09 794.96 1120.20 742.72 1096.44
  Q 719.48 1085.86 698.24 1080.89
  Q 683.19 1077.36 678.87 1076.66
  Q 651.68 1072.23 630.25 1071.98
  C 587.54 1071.47 543.23 1080.13 501.51 1092.49
  C 456.45 1105.84 412.48 1122.75 369.09 1140.70
  C 363.33 1143.08 356.53 1145.54 351.62 1147.61
  Q 351.29 1147.75 351.02 1148.24"
/>
</g>
<path fill="#ead5f1" d="
  M 790.56 11.04
  Q 790.08 12.40 789.08 12.52
  Q 788.70 12.57 788.35 12.74
  C 745.79 33.93 704.34 56.93 662.68 79.79
  Q 644.19 89.93 638.19 93.15
  C 584.83 121.77 522.65 146.53 463.23 162.98
  C 398.56 180.89 331.56 191.52 261.65 194.82
  Q 253.67 195.19 241.83 195.36
  Q 231.94 195.51 222.01 195.74
  Q 301.32 111.50 404.77 61.50
  C 524.22 3.77 659.41 -13.56 790.56 11.04
  Z"
/>
<path fill="#fafafa" d="
  M 790.56 11.04
  Q 839.18 20.51 885.80 37.27
  Q 885.88 37.44 885.88 37.62
  Q 885.86 38.11 885.39 38.27
  Q 878.43 40.62 874.26 42.36
  C 828.28 61.48 783.94 84.24 740.42 108.39
  Q 707.20 126.83 673.71 144.71
  Q 487.54 244.11 276.23 256.12
  C 265.21 256.75 254.05 257.46 243.25 257.60
  Q 207.88 258.05 171.99 256.30
  Q 174.44 252.67 176.46 249.98
  C 190.55 231.26 205.68 212.55 222.01 195.74
  Q 231.94 195.51 241.83 195.36
  Q 253.67 195.19 261.65 194.82
  C 331.56 191.52 398.56 180.89 463.23 162.98
  C 522.65 146.53 584.83 121.77 638.19 93.15
  Q 644.19 89.93 662.68 79.79
  C 704.34 56.93 745.79 33.93 788.35 12.74
  Q 788.70 12.57 789.08 12.52
  Q 790.08 12.40 790.56 11.04
  Z"
/>
<path fill="#debaeb" d="
  M 885.80 37.27
  Q 929.31 53.17 970.03 75.20
  C 969.45 75.39 969.17 75.71 968.62 75.86
  Q 945.30 82.01 922.58 90.13
  C 884.16 103.86 843.80 122.97 811.25 140.19
  C 772.50 160.70 717.35 192.60 669.60 216.08
  Q 614.97 242.94 555.68 263.56
  Q 524.11 274.54 488.25 284.44
  Q 444.36 296.56 401.12 303.86
  C 393.92 305.07 382.17 307.23 372.62 308.56
  Q 345.12 312.41 317.48 315.06
  Q 234.83 322.98 152.01 317.03
  Q 142.91 316.38 133.78 315.71
  Q 151.30 284.43 171.99 256.30
  Q 207.88 258.05 243.25 257.60
  C 254.05 257.46 265.21 256.75 276.23 256.12
  Q 487.54 244.11 673.71 144.71
  Q 707.20 126.83 740.42 108.39
  C 783.94 84.24 828.28 61.48 874.26 42.36
  Q 878.43 40.62 885.39 38.27
  Q 885.86 38.11 885.88 37.62
  Q 885.88 37.44 885.80 37.27
  Z"
/>
<path fill="#ead5f1" d="
  M 970.03 75.20
  Q 1090.23 141.11 1171.29 249.70
  C 1276.30 390.36 1316.45 570.02 1281.75 742.24
  C 1251.73 891.30 1166.94 1024.26 1045.29 1115.52
  Q 1023.93 1131.55 999.03 1147.03
  Q 970.58 1107.73 942.15 1078.35
  Q 918.02 1053.41 894.77 1034.44
  C 845.93 994.59 786.45 963.73 724.99 949.57
  Q 701.91 944.25 690.00 942.47
  C 659.82 937.94 627.16 936.82 592.97 939.07
  C 562.97 941.04 532.75 946.38 503.52 953.31
  C 470.11 961.23 437.43 971.40 409.75 981.24
  C 349.40 1002.69 287.84 1029.88 229.05 1050.73
  Q 222.41 1043.72 215.55 1036.21
  Q 175.36 992.16 144.31 941.23
  C 29.36 752.73 24.18 517.30 129.32 323.52
  Q 131.44 319.61 133.78 315.71
  Q 142.91 316.38 152.01 317.03
  Q 234.83 322.98 317.48 315.06
  Q 345.12 312.41 372.62 308.56
  C 382.17 307.23 393.92 305.07 401.12 303.86
  Q 444.36 296.56 488.25 284.44
  Q 524.11 274.54 555.68 263.56
  Q 614.97 242.94 669.60 216.08
  C 717.35 192.60 772.50 160.70 811.25 140.19
  C 843.80 122.97 884.16 103.86 922.58 90.13
  Q 945.30 82.01 968.62 75.86
  C 969.17 75.71 969.45 75.39 970.03 75.20
  Z
  M 645.74 423.42
  Q 656.37 423.34 667.11 422.34
  Q 673.75 421.72 692.24 423.42
  Q 722.36 426.19 752.02 432.11
  C 758.16 433.34 764.49 435.13 770.74 436.73
  Q 772.36 437.15 774.64 436.64
  A 1.37 1.34 -77.5 0 0 775.42 436.13
  Q 777.36 433.53 776.24 431.03
  C 771.31 420.03 699.92 412.78 686.84 411.38
  Q 678.44 410.48 669.12 410.60
  Q 660.18 410.71 651.25 410.77
  C 647.64 410.79 646.22 410.99 643.12 408.97
  Q 640.47 407.25 636.98 408.25
  Q 636.50 408.39 636.24 408.82
  Q 634.28 412.01 630.46 412.39
  Q 559.74 419.36 492.77 443.01
  Q 488.35 444.56 476.50 449.66
  Q 469.58 452.64 466.29 454.91
  C 463.09 457.11 455.93 462.44 455.60 466.66
  C 455.08 473.33 458.53 478.30 463.77 481.98
  Q 481.20 494.24 498.39 506.84
  C 515.44 519.32 529.04 529.86 539.33 542.66
  C 554.72 561.79 567.11 582.42 574.98 605.77
  C 582.78 628.91 587.15 654.37 589.44 678.50
  Q 590.64 691.15 590.23 698.00
  Q 587.85 737.55 585.49 777.11
  Q 585.46 777.58 585.74 777.95
  C 590.75 784.58 595.26 778.78 595.82 773.19
  Q 601.47 717.69 607.18 662.20
  C 610.01 634.67 613.95 607.20 617.62 579.77
  C 622.74 541.53 630.32 503.49 637.12 465.52
  Q 640.87 444.59 645.27 423.81
  A 0.49 0.48 -84.1 0 1 645.74 423.42
  Z
  M 286.46 620.04
  Q 286.77 619.48 286.95 620.10
  Q 288.49 625.47 293.72 625.97
  C 299.33 626.50 301.41 625.83 304.66 620.91
  Q 311.32 610.82 316.80 600.03
  C 317.52 598.62 318.72 597.27 319.68 596.08
  Q 320.31 595.31 320.38 596.30
  C 321.85 617.45 340.63 630.61 359.81 617.06
  C 366.58 612.27 375.19 605.07 378.80 597.52
  Q 380.61 593.72 380.24 591.75
  C 379.59 588.25 376.07 588.57 373.70 590.18
  Q 371.63 591.58 368.19 596.06
  C 363.29 602.46 355.77 610.48 347.99 612.71
  C 336.11 616.12 330.26 603.89 329.77 594.49
  C 329.49 589.03 331.27 573.17 321.88 574.87
  A 1.29 1.28 -74.4 0 0 321.13 575.30
  Q 317.97 578.93 315.14 583.91
  C 308.22 596.10 304.81 603.94 298.19 612.35
  Q 297.73 612.94 297.75 612.19
  Q 298.06 601.13 302.88 591.16
  C 305.99 584.71 315.00 568.29 324.02 567.98
  C 329.91 567.78 331.28 574.83 336.99 574.55
  Q 339.17 574.44 339.51 572.51
  C 340.46 567.02 333.15 560.80 328.90 559.35
  C 311.77 553.50 297.87 575.28 292.48 587.95
  C 290.93 591.62 289.71 595.03 287.48 598.45
  C 282.75 605.68 278.49 614.46 271.78 627.13
  C 271.05 628.53 269.87 629.99 269.18 631.24
  Q 244.60 675.87 219.76 720.35
  C 216.39 726.39 211.71 734.83 205.50 738.29
  C 195.73 743.73 191.23 722.66 190.16 717.27
  C 187.52 703.88 186.63 691.11 187.46 676.99
  Q 187.83 670.71 188.01 661.99
  Q 188.33 646.69 190.36 631.49
  C 193.05 611.33 195.61 590.86 199.74 570.94
  C 210.41 519.50 223.36 468.13 240.57 418.46
  C 243.99 408.59 233.18 404.97 228.50 412.74
  Q 225.89 417.08 223.03 424.51
  Q 217.84 437.95 213.59 451.72
  Q 201.45 491.00 192.00 531.01
  C 186.73 553.31 182.85 575.66 179.28 599.01
  C 173.43 637.25 170.56 677.24 177.36 715.24
  C 179.03 724.62 183.82 742.12 192.27 747.69
  C 210.07 759.41 228.39 727.08 234.55 715.32
  C 251.34 683.27 269.17 651.72 286.46 620.04
  Z
  M 645.38 612.04
  C 645.91 601.27 649.63 591.34 655.45 582.37
  C 659.05 576.81 666.72 565.23 674.72 568.63
  C 678.75 570.35 679.86 575.12 685.16 574.48
  A 2.31 2.31 0.0 0 0 687.14 572.66
  Q 687.53 570.79 686.49 568.73
  Q 681.71 559.35 672.01 558.46
  C 663.04 557.62 655.01 564.62 650.30 570.77
  C 640.60 583.43 631.42 602.87 634.48 619.00
  C 635.37 623.66 636.81 625.01 641.33 625.83
  Q 648.28 627.08 651.63 622.06
  Q 658.58 611.65 664.18 600.45
  C 664.92 598.98 666.13 597.54 667.07 596.28
  Q 667.81 595.30 667.92 596.52
  C 669.02 607.82 675.64 619.66 687.22 622.24
  C 699.22 624.92 708.65 616.41 717.05 609.41
  Q 717.43 609.10 717.45 609.58
  Q 717.91 619.01 717.36 628.42
  C 717.24 630.41 717.49 638.23 720.16 638.64
  Q 727.03 639.70 727.39 633.40
  C 728.06 621.61 729.21 612.74 735.89 602.75
  C 739.15 597.86 741.56 596.92 747.25 596.81
  C 755.00 596.67 762.90 597.61 770.55 596.24
  Q 771.08 596.14 771.11 596.68
  Q 771.43 602.60 771.76 608.54
  C 772.07 614.21 771.40 623.02 772.71 630.37
  A 2.63 2.62 -27.3 0 1 771.96 632.70
  Q 759.09 645.34 746.22 658.48
  Q 726.64 678.47 714.08 707.17
  Q 709.32 718.05 708.03 723.25
  C 705.71 732.59 705.42 740.24 706.06 749.63
  Q 706.72 759.33 709.08 764.56
  C 712.60 772.35 719.63 779.26 728.35 780.17
  C 745.40 781.96 760.68 761.70 766.91 747.92
  Q 778.76 721.73 782.81 693.25
  C 785.74 672.61 786.34 651.83 786.37 631.03
  A 0.93 0.91 73.7 0 1 786.78 630.26
  Q 788.65 629.04 790.53 627.54
  Q 805.72 615.38 820.79 603.00
  A 0.30 0.29 70.5 0 1 821.27 603.23
  Q 821.25 610.85 826.69 616.33
  C 842.64 632.38 864.83 619.33 878.61 607.82
  Q 882.77 604.35 887.02 600.77
  Q 887.50 600.37 887.49 600.99
  C 887.37 627.03 886.98 652.99 888.78 679.00
  C 889.02 682.52 889.40 686.62 892.40 688.90
  C 895.14 690.98 898.77 690.97 899.84 686.98
  Q 900.88 683.07 900.67 680.36
  C 900.03 672.41 899.25 664.43 899.13 656.53
  Q 898.64 622.64 899.70 588.76
  C 899.78 586.22 900.34 583.11 900.30 580.75
  Q 900.11 569.88 899.90 559.00
  C 899.84 555.89 900.78 552.90 900.70 549.99
  Q 900.54 543.98 900.81 541.25
  Q 903.69 512.00 906.54 482.79
  Q 906.56 482.52 906.83 482.47
  Q 932.72 477.24 959.00 473.79
  C 965.36 472.95 973.55 472.04 979.81 473.58
  Q 980.35 473.72 980.52 474.26
  L 980.73 474.98
  Q 980.88 475.47 981.39 475.48
  C 989.54 475.58 987.96 467.93 982.37 465.60
  Q 978.46 463.97 973.49 464.10
  C 953.44 464.62 933.43 468.40 913.75 472.03
  Q 911.65 472.42 909.56 472.43
  Q 908.98 472.43 908.92 471.85
  Q 908.50 467.46 912.77 466.96
  A 1.94 1.94 0.0 0 0 914.48 465.06
  Q 914.51 462.58 914.40 460.54
  C 914.18 456.76 915.30 452.20 912.47 449.06
  C 908.21 444.36 903.85 450.21 901.95 453.97
  Q 899.23 459.36 897.02 472.01
  Q 896.42 475.47 893.66 476.15
  Q 860.67 484.29 837.05 491.95
  C 830.74 494.00 803.94 504.12 802.59 510.80
  C 801.18 517.74 808.40 517.35 812.74 516.46
  Q 813.22 516.36 813.42 515.91
  C 814.06 514.47 814.50 511.73 816.02 511.05
  C 822.05 508.34 827.94 504.94 833.86 502.76
  Q 862.90 492.06 893.29 485.67
  Q 893.82 485.56 893.77 486.10
  Q 892.64 498.82 891.37 511.53
  C 890.98 515.38 890.89 520.14 890.39 524.44
  Q 889.61 531.04 889.48 534.10
  Q 888.39 558.66 888.36 583.25
  Q 888.36 585.60 888.18 587.99
  Q 888.15 588.48 887.82 588.86
  C 882.78 594.65 877.67 598.58 872.21 603.20
  C 866.41 608.11 853.24 615.47 844.26 615.27
  C 838.03 615.12 832.13 610.23 831.41 604.01
  Q 831.07 601.07 831.14 596.76
  Q 831.15 596.27 831.63 596.18
  C 842.58 594.25 856.13 584.19 859.91 573.66
  C 865.38 558.41 850.35 556.58 841.34 562.65
  C 831.00 569.62 823.29 579.95 821.13 592.42
  Q 821.04 592.94 820.63 593.26
  L 786.04 620.76
  Q 785.54 621.16 785.53 620.52
  C 785.44 613.55 784.28 561.06 775.00 560.95
  Q 767.12 560.85 764.29 568.01
  C 763.04 571.19 764.07 575.48 768.05 575.55
  A 1.95 1.79 -1.2 0 1 769.95 577.22
  L 770.72 588.74
  Q 770.77 589.36 770.16 589.24
  C 760.82 587.50 750.45 588.02 741.01 588.68
  C 735.41 589.07 733.39 593.11 729.57 596.17
  Q 728.65 596.91 728.83 595.75
  C 729.57 590.91 729.32 585.56 729.73 581.09
  C 730.15 576.36 731.44 568.43 727.65 567.08
  Q 722.21 565.15 720.74 570.35
  C 718.70 577.55 718.38 584.53 717.68 591.91
  Q 717.47 594.05 716.26 595.69
  C 711.20 602.54 700.54 613.61 691.23 613.38
  C 677.33 613.04 677.21 592.52 676.92 583.25
  C 676.70 576.41 671.20 570.32 666.04 578.56
  C 659.48 589.06 653.43 601.37 646.02 612.26
  Q 645.32 613.30 645.38 612.04
  Z
  M 778.62 511.85
  C 771.77 512.41 767.15 526.84 775.23 528.78
  C 778.82 529.64 783.18 526.53 783.63 522.75
  C 784.02 519.49 783.42 511.45 778.62 511.85
  Z
  M 1053.30 518.04
  C 1044.64 506.85 1033.84 531.86 1045.38 535.92
  C 1051.26 537.98 1056.77 532.96 1056.64 526.99
  Q 1056.54 522.23 1053.30 518.04
  Z
  M 990.60 595.92
  C 990.62 594.09 991.07 592.18 991.09 590.53
  Q 991.19 581.63 991.94 572.75
  C 992.33 568.07 989.73 565.90 985.19 566.78
  Q 984.69 566.87 984.37 567.27
  C 979.98 572.56 979.82 585.92 979.36 592.52
  A 3.07 3.07 0.0 0 1 978.26 594.67
  C 968.80 602.54 961.44 609.02 948.98 613.70
  C 940.38 616.93 931.60 615.60 927.65 606.24
  Q 926.51 603.54 927.17 596.50
  Q 927.21 596.06 927.65 595.99
  C 938.50 594.47 951.47 584.31 955.52 573.99
  C 957.47 569.04 958.08 562.64 952.36 560.33
  C 945.80 557.68 938.17 561.07 932.95 565.70
  C 924.19 573.47 915.99 585.24 916.76 597.18
  C 917.29 605.43 916.89 611.29 923.31 617.22
  C 940.50 633.12 965.29 616.61 978.70 604.34
  A 0.22 0.22 0.0 0 1 979.06 604.49
  Q 979.62 617.81 979.14 631.25
  C 979.08 633.08 979.71 638.59 982.26 638.77
  Q 988.90 639.22 989.11 632.63
  C 989.49 620.91 991.61 611.59 998.08 602.05
  C 1001.13 597.54 1004.54 596.77 1009.75 596.78
  Q 1017.97 596.80 1026.23 597.03
  Q 1026.72 597.04 1026.73 597.53
  C 1026.81 611.66 1027.33 627.83 1039.47 637.57
  C 1048.31 644.65 1060.80 639.76 1068.17 633.41
  Q 1080.54 622.75 1090.73 610.15
  Q 1091.54 609.15 1091.44 610.43
  C 1090.84 617.98 1091.59 626.20 1101.46 626.21
  Q 1106.01 626.22 1109.19 621.72
  C 1114.02 614.91 1117.32 608.65 1122.79 598.57
  Q 1123.52 597.22 1124.99 596.01
  Q 1125.46 595.62 1125.50 596.23
  Q 1126.34 608.91 1135.02 616.92
  C 1144.51 625.68 1155.53 623.62 1165.27 616.76
  Q 1174.77 610.07 1181.23 601.73
  C 1183.12 599.30 1186.82 593.35 1184.76 590.34
  C 1182.83 587.54 1179.05 589.67 1177.34 591.58
  C 1171.75 597.84 1168.85 602.24 1161.58 608.07
  C 1146.36 620.26 1135.87 609.35 1134.91 593.74
  C 1134.58 588.28 1136.27 573.37 1127.18 574.89
  Q 1126.72 574.97 1126.38 575.29
  Q 1124.62 576.98 1123.32 579.07
  C 1116.63 589.83 1110.98 601.09 1104.00 611.66
  Q 1102.72 613.60 1102.95 611.29
  C 1103.19 608.84 1103.25 606.04 1103.86 603.59
  Q 1108.03 586.75 1119.41 573.71
  C 1122.66 569.98 1128.15 566.18 1133.03 569.03
  C 1136.32 570.94 1139.19 576.62 1143.83 573.93
  Q 1144.24 573.69 1144.38 573.25
  Q 1145.20 570.78 1144.29 568.99
  C 1139.78 560.03 1130.73 556.08 1121.33 559.64
  C 1110.84 563.62 1101.81 578.26 1097.51 588.05
  Q 1096.52 590.29 1094.82 591.93
  Q 1088.26 598.25 1082.68 605.43
  C 1077.55 612.04 1058.14 634.76 1048.25 630.56
  C 1039.55 626.86 1039.00 604.91 1039.81 596.37
  C 1040.50 589.12 1042.31 580.10 1043.52 571.98
  C 1043.98 568.86 1044.53 564.98 1041.08 563.91
  Q 1035.92 562.29 1033.26 566.51
  C 1029.58 572.33 1028.16 581.43 1027.52 588.00
  Q 1027.48 588.50 1026.97 588.48
  Q 1014.86 587.82 1002.76 588.64
  C 997.07 589.02 994.74 593.43 991.22 596.23
  Q 990.58 596.73 990.60 595.92
  Z
  M 1113.95 890.86
  C 1111.54 891.16 1108.34 891.19 1105.62 891.68
  A 0.27 0.27 0.0 0 0 1105.60 892.20
  Q 1112.75 893.99 1120.05 895.99
  C 1126.06 897.64 1130.36 900.48 1131.14 906.65
  Q 1132.27 915.50 1132.50 921.72
  Q 1132.72 927.73 1134.16 921.89
  Q 1135.54 916.35 1137.13 910.63
  C 1138.97 904.06 1141.58 899.51 1148.50 898.89
  Q 1156.64 898.16 1163.79 897.44
  Q 1168.00 897.02 1163.87 896.11
  Q 1157.98 894.81 1150.44 892.58
  C 1142.43 890.20 1140.68 885.91 1139.83 877.65
  Q 1139.15 871.12 1138.87 864.78
  Q 1138.82 863.57 1138.28 864.65
  C 1135.10 871.07 1135.36 880.39 1130.71 885.81
  C 1126.76 890.41 1119.49 890.17 1113.95 890.86
  Z"
/>
<path fill="#545050" d="
  M 645.74 423.42
  A 0.49 0.48 -84.1 0 0 645.27 423.81
  Q 640.87 444.59 637.12 465.52
  C 630.32 503.49 622.74 541.53 617.62 579.77
  C 613.95 607.20 610.01 634.67 607.18 662.20
  Q 601.47 717.69 595.82 773.19
  C 595.26 778.78 590.75 784.58 585.74 777.95
  Q 585.46 777.58 585.49 777.11
  Q 587.85 737.55 590.23 698.00
  Q 590.64 691.15 589.44 678.50
  C 587.15 654.37 582.78 628.91 574.98 605.77
  C 567.11 582.42 554.72 561.79 539.33 542.66
  C 529.04 529.86 515.44 519.32 498.39 506.84
  Q 481.20 494.24 463.77 481.98
  C 458.53 478.30 455.08 473.33 455.60 466.66
  C 455.93 462.44 463.09 457.11 466.29 454.91
  Q 469.58 452.64 476.50 449.66
  Q 488.35 444.56 492.77 443.01
  Q 559.74 419.36 630.46 412.39
  Q 634.28 412.01 636.24 408.82
  Q 636.50 408.39 636.98 408.25
  Q 640.47 407.25 643.12 408.97
  C 646.22 410.99 647.64 410.79 651.25 410.77
  Q 660.18 410.71 669.12 410.60
  Q 678.44 410.48 686.84 411.38
  C 699.92 412.78 771.31 420.03 776.24 431.03
  Q 777.36 433.53 775.42 436.13
  A 1.37 1.34 -77.5 0 1 774.64 436.64
  Q 772.36 437.15 770.74 436.73
  C 764.49 435.13 758.16 433.34 752.02 432.11
  Q 722.36 426.19 692.24 423.42
  Q 673.75 421.72 667.11 422.34
  Q 656.37 423.34 645.74 423.42
  Z
  M 478.67 461.36
  C 473.67 463.33 469.55 465.79 465.60 469.44
  Q 465.22 469.80 465.40 470.29
  Q 466.59 473.57 468.99 475.28
  Q 493.62 492.87 508.83 504.17
  C 534.61 523.34 557.19 547.70 571.77 576.95
  C 580.71 594.88 587.10 613.21 590.77 632.65
  C 591.88 638.53 592.43 645.71 594.94 651.14
  Q 595.25 651.82 595.33 651.08
  Q 599.49 610.32 605.22 569.75
  Q 608.50 546.54 612.09 523.38
  Q 619.71 474.21 630.97 425.94
  A 0.64 0.64 0.0 0 0 630.30 425.15
  Q 622.57 425.61 615.51 426.83
  Q 579.00 433.15 543.06 442.17
  Q 522.38 447.35 501.93 453.37
  Q 490.12 456.85 478.67 461.36
  Z"
/>
<path fill="#545050" d="
  M 286.46 620.04
  C 269.17 651.72 251.34 683.27 234.55 715.32
  C 228.39 727.08 210.07 759.41 192.27 747.69
  C 183.82 742.12 179.03 724.62 177.36 715.24
  C 170.56 677.24 173.43 637.25 179.28 599.01
  C 182.85 575.66 186.73 553.31 192.00 531.01
  Q 201.45 491.00 213.59 451.72
  Q 217.84 437.95 223.03 424.51
  Q 225.89 417.08 228.50 412.74
  C 233.18 404.97 243.99 408.59 240.57 418.46
  C 223.36 468.13 210.41 519.50 199.74 570.94
  C 195.61 590.86 193.05 611.33 190.36 631.49
  Q 188.33 646.69 188.01 661.99
  Q 187.83 670.71 187.46 676.99
  C 186.63 691.11 187.52 703.88 190.16 717.27
  C 191.23 722.66 195.73 743.73 205.50 738.29
  C 211.71 734.83 216.39 726.39 219.76 720.35
  Q 244.60 675.87 269.18 631.24
  C 269.87 629.99 271.05 628.53 271.78 627.13
  C 278.49 614.46 282.75 605.68 287.48 598.45
  C 289.71 595.03 290.93 591.62 292.48 587.95
  C 297.87 575.28 311.77 553.50 328.90 559.35
  C 333.15 560.80 340.46 567.02 339.51 572.51
  Q 339.17 574.44 336.99 574.55
  C 331.28 574.83 329.91 567.78 324.02 567.98
  C 315.00 568.29 305.99 584.71 302.88 591.16
  Q 298.06 601.13 297.75 612.19
  Q 297.73 612.94 298.19 612.35
  C 304.81 603.94 308.22 596.10 315.14 583.91
  Q 317.97 578.93 321.13 575.30
  A 1.29 1.28 -74.4 0 1 321.88 574.87
  C 331.27 573.17 329.49 589.03 329.77 594.49
  C 330.26 603.89 336.11 616.12 347.99 612.71
  C 355.77 610.48 363.29 602.46 368.19 596.06
  Q 371.63 591.58 373.70 590.18
  C 376.07 588.57 379.59 588.25 380.24 591.75
  Q 380.61 593.72 378.80 597.52
  C 375.19 605.07 366.58 612.27 359.81 617.06
  C 340.63 630.61 321.85 617.45 320.38 596.30
  Q 320.31 595.31 319.68 596.08
  C 318.72 597.27 317.52 598.62 316.80 600.03
  Q 311.32 610.82 304.66 620.91
  C 301.41 625.83 299.33 626.50 293.72 625.97
  Q 288.49 625.47 286.95 620.10
  Q 286.77 619.48 286.46 620.04
  Z"
/>
<path fill="#ead5f1" d="
  M 478.67 461.36
  Q 490.12 456.85 501.93 453.37
  Q 522.38 447.35 543.06 442.17
  Q 579.00 433.15 615.51 426.83
  Q 622.57 425.61 630.30 425.15
  A 0.64 0.64 0.0 0 1 630.97 425.94
  Q 619.71 474.21 612.09 523.38
  Q 608.50 546.54 605.22 569.75
  Q 599.49 610.32 595.33 651.08
  Q 595.25 651.82 594.94 651.14
  C 592.43 645.71 591.88 638.53 590.77 632.65
  C 587.10 613.21 580.71 594.88 571.77 576.95
  C 557.19 547.70 534.61 523.34 508.83 504.17
  Q 493.62 492.87 468.99 475.28
  Q 466.59 473.57 465.40 470.29
  Q 465.22 469.80 465.60 469.44
  C 469.55 465.79 473.67 463.33 478.67 461.36
  Z"
/>
<path fill="#545050" d="
  M 645.38 612.04
  Q 645.32 613.30 646.02 612.26
  C 653.43 601.37 659.48 589.06 666.04 578.56
  C 671.20 570.32 676.70 576.41 676.92 583.25
  C 677.21 592.52 677.33 613.04 691.23 613.38
  C 700.54 613.61 711.20 602.54 716.26 595.69
  Q 717.47 594.05 717.68 591.91
  C 718.38 584.53 718.70 577.55 720.74 570.35
  Q 722.21 565.15 727.65 567.08
  C 731.44 568.43 730.15 576.36 729.73 581.09
  C 729.32 585.56 729.57 590.91 728.83 595.75
  Q 728.65 596.91 729.57 596.17
  C 733.39 593.11 735.41 589.07 741.01 588.68
  C 750.45 588.02 760.82 587.50 770.16 589.24
  Q 770.77 589.36 770.72 588.74
  L 769.95 577.22
  A 1.95 1.79 -1.2 0 0 768.05 575.55
  C 764.07 575.48 763.04 571.19 764.29 568.01
  Q 767.12 560.85 775.00 560.95
  C 784.28 561.06 785.44 613.55 785.53 620.52
  Q 785.54 621.16 786.04 620.76
  L 820.63 593.26
  Q 821.04 592.94 821.13 592.42
  C 823.29 579.95 831.00 569.62 841.34 562.65
  C 850.35 556.58 865.38 558.41 859.91 573.66
  C 856.13 584.19 842.58 594.25 831.63 596.18
  Q 831.15 596.27 831.14 596.76
  Q 831.07 601.07 831.41 604.01
  C 832.13 610.23 838.03 615.12 844.26 615.27
  C 853.24 615.47 866.41 608.11 872.21 603.20
  C 877.67 598.58 882.78 594.65 887.82 588.86
  Q 888.15 588.48 888.18 587.99
  Q 888.36 585.60 888.36 583.25
  Q 888.39 558.66 889.48 534.10
  Q 889.61 531.04 890.39 524.44
  C 890.89 520.14 890.98 515.38 891.37 511.53
  Q 892.64 498.82 893.77 486.10
  Q 893.82 485.56 893.29 485.67
  Q 862.90 492.06 833.86 502.76
  C 827.94 504.94 822.05 508.34 816.02 511.05
  C 814.50 511.73 814.06 514.47 813.42 515.91
  Q 813.22 516.36 812.74 516.46
  C 808.40 517.35 801.18 517.74 802.59 510.80
  C 803.94 504.12 830.74 494.00 837.05 491.95
  Q 860.67 484.29 893.66 476.15
  Q 896.42 475.47 897.02 472.01
  Q 899.23 459.36 901.95 453.97
  C 903.85 450.21 908.21 444.36 912.47 449.06
  C 915.30 452.20 914.18 456.76 914.40 460.54
  Q 914.51 462.58 914.48 465.06
  A 1.94 1.94 0.0 0 1 912.77 466.96
  Q 908.50 467.46 908.92 471.85
  Q 908.98 472.43 909.56 472.43
  Q 911.65 472.42 913.75 472.03
  C 933.43 468.40 953.44 464.62 973.49 464.10
  Q 978.46 463.97 982.37 465.60
  C 987.96 467.93 989.54 475.58 981.39 475.48
  Q 980.88 475.47 980.73 474.98
  L 980.52 474.26
  Q 980.35 473.72 979.81 473.58
  C 973.55 472.04 965.36 472.95 959.00 473.79
  Q 932.72 477.24 906.83 482.47
  Q 906.56 482.52 906.54 482.79
  Q 903.69 512.00 900.81 541.25
  Q 900.54 543.98 900.70 549.99
  C 900.78 552.90 899.84 555.89 899.90 559.00
  Q 900.11 569.88 900.30 580.75
  C 900.34 583.11 899.78 586.22 899.70 588.76
  Q 898.64 622.64 899.13 656.53
  C 899.25 664.43 900.03 672.41 900.67 680.36
  Q 900.88 683.07 899.84 686.98
  C 898.77 690.97 895.14 690.98 892.40 688.90
  C 889.40 686.62 889.02 682.52 888.78 679.00
  C 886.98 652.99 887.37 627.03 887.49 600.99
  Q 887.50 600.37 887.02 600.77
  Q 882.77 604.35 878.61 607.82
  C 864.83 619.33 842.64 632.38 826.69 616.33
  Q 821.25 610.85 821.27 603.23
  A 0.30 0.29 70.5 0 0 820.79 603.00
  Q 805.72 615.38 790.53 627.54
  Q 788.65 629.04 786.78 630.26
  A 0.93 0.91 73.7 0 0 786.37 631.03
  C 786.34 651.83 785.74 672.61 782.81 693.25
  Q 778.76 721.73 766.91 747.92
  C 760.68 761.70 745.40 781.96 728.35 780.17
  C 719.63 779.26 712.60 772.35 709.08 764.56
  Q 706.72 759.33 706.06 749.63
  C 705.42 740.24 705.71 732.59 708.03 723.25
  Q 709.32 718.05 714.08 707.17
  Q 726.64 678.47 746.22 658.48
  Q 759.09 645.34 771.96 632.70
  A 2.63 2.62 -27.3 0 0 772.71 630.37
  C 771.40 623.02 772.07 614.21 771.76 608.54
  Q 771.43 602.60 771.11 596.68
  Q 771.08 596.14 770.55 596.24
  C 762.90 597.61 755.00 596.67 747.25 596.81
  C 741.56 596.92 739.15 597.86 735.89 602.75
  C 729.21 612.74 728.06 621.61 727.39 633.40
  Q 727.03 639.70 720.16 638.64
  C 717.49 638.23 717.24 630.41 717.36 628.42
  Q 717.91 619.01 717.45 609.58
  Q 717.43 609.10 717.05 609.41
  C 708.65 616.41 699.22 624.92 687.22 622.24
  C 675.64 619.66 669.02 607.82 667.92 596.52
  Q 667.81 595.30 667.07 596.28
  C 666.13 597.54 664.92 598.98 664.18 600.45
  Q 658.58 611.65 651.63 622.06
  Q 648.28 627.08 641.33 625.83
  C 636.81 625.01 635.37 623.66 634.48 619.00
  C 631.42 602.87 640.60 583.43 650.30 570.77
  C 655.01 564.62 663.04 557.62 672.01 558.46
  Q 681.71 559.35 686.49 568.73
  Q 687.53 570.79 687.14 572.66
  A 2.31 2.31 0.0 0 1 685.16 574.48
  C 679.86 575.12 678.75 570.35 674.72 568.63
  C 666.72 565.23 659.05 576.81 655.45 582.37
  C 649.63 591.34 645.91 601.27 645.38 612.04
  Z
  M 852.39 568.46
  C 844.11 571.32 837.29 579.31 834.04 587.27
  Q 833.71 588.07 834.47 587.66
  C 841.20 583.99 851.99 577.36 852.77 568.75
  A 0.29 0.28 -7.4 0 0 852.39 568.46
  Z
  M 720.70 710.46
  Q 712.96 728.79 713.51 748.75
  C 713.80 758.85 719.32 773.69 732.15 771.34
  C 740.35 769.84 747.84 760.39 751.88 753.55
  C 763.81 733.37 768.86 708.57 771.02 685.50
  Q 772.97 664.61 772.82 643.67
  A 0.23 0.23 0.0 0 0 772.44 643.49
  Q 767.16 647.61 762.49 652.49
  C 751.63 663.82 740.41 676.46 732.20 689.85
  C 728.01 696.69 723.85 703.02 720.70 710.46
  Z"
/>
<path fill="#545050" d="
  M 775.23 528.78
  C 767.15 526.84 771.77 512.41 778.62 511.85
  C 783.42 511.45 784.02 519.49 783.63 522.75
  C 783.18 526.53 778.82 529.64 775.23 528.78
  Z"
/>
<path fill="#545050" d="
  M 1045.38 535.92
  C 1033.84 531.86 1044.64 506.85 1053.30 518.04
  Q 1056.54 522.23 1056.64 526.99
  C 1056.77 532.96 1051.26 537.98 1045.38 535.92
  Z"
/>
<path fill="#545050" d="
  M 991.22 596.23
  C 994.74 593.43 997.07 589.02 1002.76 588.64
  Q 1014.86 587.82 1026.97 588.48
  Q 1027.48 588.50 1027.52 588.00
  C 1028.16 581.43 1029.58 572.33 1033.26 566.51
  Q 1035.92 562.29 1041.08 563.91
  C 1044.53 564.98 1043.98 568.86 1043.52 571.98
  C 1042.31 580.10 1040.50 589.12 1039.81 596.37
  C 1039.00 604.91 1039.55 626.86 1048.25 630.56
  C 1058.14 634.76 1077.55 612.04 1082.68 605.43
  Q 1088.26 598.25 1094.82 591.93
  Q 1096.52 590.29 1097.51 588.05
  C 1101.81 578.26 1110.84 563.62 1121.33 559.64
  C 1130.73 556.08 1139.78 560.03 1144.29 568.99
  Q 1145.20 570.78 1144.38 573.25
  Q 1144.24 573.69 1143.83 573.93
  C 1139.19 576.62 1136.32 570.94 1133.03 569.03
  C 1128.15 566.18 1122.66 569.98 1119.41 573.71
  Q 1108.03 586.75 1103.86 603.59
  C 1103.25 606.04 1103.19 608.84 1102.95 611.29
  Q 1102.72 613.60 1104.00 611.66
  C 1110.98 601.09 1116.63 589.83 1123.32 579.07
  Q 1124.62 576.98 1126.38 575.29
  Q 1126.72 574.97 1127.18 574.89
  C 1136.27 573.37 1134.58 588.28 1134.91 593.74
  C 1135.87 609.35 1146.36 620.26 1161.58 608.07
  C 1168.85 602.24 1171.75 597.84 1177.34 591.58
  C 1179.05 589.67 1182.83 587.54 1184.76 590.34
  C 1186.82 593.35 1183.12 599.30 1181.23 601.73
  Q 1174.77 610.07 1165.27 616.76
  C 1155.53 623.62 1144.51 625.68 1135.02 616.92
  Q 1126.34 608.91 1125.50 596.23
  Q 1125.46 595.62 1124.99 596.01
  Q 1123.52 597.22 1122.79 598.57
  C 1117.32 608.65 1114.02 614.91 1109.19 621.72
  Q 1106.01 626.22 1101.46 626.21
  C 1091.59 626.20 1090.84 617.98 1091.44 610.43
  Q 1091.54 609.15 1090.73 610.15
  Q 1080.54 622.75 1068.17 633.41
  C 1060.80 639.76 1048.31 644.65 1039.47 637.57
  C 1027.33 627.83 1026.81 611.66 1026.73 597.53
  Q 1026.72 597.04 1026.23 597.03
  Q 1017.97 596.80 1009.75 596.78
  C 1004.54 596.77 1001.13 597.54 998.08 602.05
  C 991.61 611.59 989.49 620.91 989.11 632.63
  Q 988.90 639.22 982.26 638.77
  C 979.71 638.59 979.08 633.08 979.14 631.25
  Q 979.62 617.81 979.06 604.49
  A 0.22 0.22 0.0 0 0 978.70 604.34
  C 965.29 616.61 940.50 633.12 923.31 617.22
  C 916.89 611.29 917.29 605.43 916.76 597.18
  C 915.99 585.24 924.19 573.47 932.95 565.70
  C 938.17 561.07 945.80 557.68 952.36 560.33
  C 958.08 562.64 957.47 569.04 955.52 573.99
  C 951.47 584.31 938.50 594.47 927.65 595.99
  Q 927.21 596.06 927.17 596.50
  Q 926.51 603.54 927.65 606.24
  C 931.60 615.60 940.38 616.93 948.98 613.70
  C 961.44 609.02 968.80 602.54 978.26 594.67
  A 3.07 3.07 0.0 0 0 979.36 592.52
  C 979.82 585.92 979.98 572.56 984.37 567.27
  Q 984.69 566.87 985.19 566.78
  C 989.73 565.90 992.33 568.07 991.94 572.75
  Q 991.19 581.63 991.09 590.53
  C 991.07 592.18 990.62 594.09 990.60 595.92
  Q 990.58 596.73 991.22 596.23
  Z
  M 930.36 587.61
  C 936.51 584.36 948.23 576.97 948.55 568.92
  Q 948.58 568.35 948.03 568.53
  C 939.66 571.30 933.41 579.45 929.85 587.12
  Q 929.38 588.13 930.36 587.61
  Z"
/>
<path fill="#ead5f1" d="
  M 834.04 587.27
  C 837.29 579.31 844.11 571.32 852.39 568.46
  A 0.29 0.28 -7.4 0 1 852.77 568.75
  C 851.99 577.36 841.20 583.99 834.47 587.66
  Q 833.71 588.07 834.04 587.27
  Z"
/>
<path fill="#ead5f1" d="
  M 948.55 568.92
  C 948.23 576.97 936.51 584.36 930.36 587.61
  Q 929.38 588.13 929.85 587.12
  C 933.41 579.45 939.66 571.30 948.03 568.53
  Q 948.58 568.35 948.55 568.92
  Z"
/>
<path fill="#ead5f1" d="
  M 720.70 710.46
  C 723.85 703.02 728.01 696.69 732.20 689.85
  C 740.41 676.46 751.63 663.82 762.49 652.49
  Q 767.16 647.61 772.44 643.49
  A 0.23 0.23 0.0 0 1 772.82 643.67
  Q 772.97 664.61 771.02 685.50
  C 768.86 708.57 763.81 733.37 751.88 753.55
  C 747.84 760.39 740.35 769.84 732.15 771.34
  C 719.32 773.69 713.80 758.85 713.51 748.75
  Q 712.96 728.79 720.70 710.46
  Z"
/>
<path fill="#fafafa" d="
  M 1113.95 890.86
  C 1119.49 890.17 1126.76 890.41 1130.71 885.81
  C 1135.36 880.39 1135.10 871.07 1138.28 864.65
  Q 1138.82 863.57 1138.87 864.78
  Q 1139.15 871.12 1139.83 877.65
  C 1140.68 885.91 1142.43 890.20 1150.44 892.58
  Q 1157.98 894.81 1163.87 896.11
  Q 1168.00 897.02 1163.79 897.44
  Q 1156.64 898.16 1148.50 898.89
  C 1141.58 899.51 1138.97 904.06 1137.13 910.63
  Q 1135.54 916.35 1134.16 921.89
  Q 1132.72 927.73 1132.50 921.72
  Q 1132.27 915.50 1131.14 906.65
  C 1130.36 900.48 1126.06 897.64 1120.05 895.99
  Q 1112.75 893.99 1105.60 892.20
  A 0.27 0.27 0.0 0 1 1105.62 891.68
  C 1108.34 891.19 1111.54 891.16 1113.95 890.86
  Z"
/>
<path fill="#fafafa" d="
  M 999.03 1147.03
  Q 978.63 1159.31 969.33 1164.35
  Q 961.24 1168.73 939.73 1179.31
  C 903.72 1129.75 857.37 1083.35 804.24 1052.34
  C 750.36 1020.88 688.40 1004.37 625.51 1004.96
  C 617.62 1005.03 609.90 1004.91 602.01 1005.61
  Q 596.14 1006.14 590.27 1006.64
  C 541.97 1010.75 494.12 1022.95 448.43 1038.81
  C 407.74 1052.94 370.51 1067.73 326.55 1085.55
  Q 318.24 1088.92 307.95 1092.90
  Q 296.68 1097.25 285.17 1101.85
  Q 283.77 1100.79 281.78 1099.16
  Q 254.28 1076.56 229.05 1050.73
  C 287.84 1029.88 349.40 1002.69 409.75 981.24
  C 437.43 971.40 470.11 961.23 503.52 953.31
  C 532.75 946.38 562.97 941.04 592.97 939.07
  C 627.16 936.82 659.82 937.94 690.00 942.47
  Q 701.91 944.25 724.99 949.57
  C 786.45 963.73 845.93 994.59 894.77 1034.44
  Q 918.02 1053.41 942.15 1078.35
  Q 970.58 1107.73 999.03 1147.03
  Z"
/>
<path fill="#debaeb" d="
  M 939.73 1179.31
  Q 913.19 1191.59 886.18 1201.54
  Q 880.30 1203.71 875.05 1205.52
  C 839.64 1160.09 794.96 1120.20 742.72 1096.44
  Q 719.48 1085.86 698.24 1080.89
  Q 683.19 1077.36 678.87 1076.66
  Q 651.68 1072.23 630.25 1071.98
  C 587.54 1071.47 543.23 1080.13 501.51 1092.49
  C 456.45 1105.84 412.48 1122.75 369.09 1140.70
  C 363.33 1143.08 356.53 1145.54 351.62 1147.61
  Q 351.29 1147.75 351.02 1148.24
  Q 316.90 1127.38 285.17 1101.85
  Q 296.68 1097.25 307.95 1092.90
  Q 318.24 1088.92 326.55 1085.55
  C 370.51 1067.73 407.74 1052.94 448.43 1038.81
  C 494.12 1022.95 541.97 1010.75 590.27 1006.64
  Q 596.14 1006.14 602.01 1005.61
  C 609.90 1004.91 617.62 1005.03 625.51 1004.96
  C 688.40 1004.37 750.36 1020.88 804.24 1052.34
  C 857.37 1083.35 903.72 1129.75 939.73 1179.31
  Z"
/>
<path fill="#ead5f1" d="
  M 875.05 1205.52
  C 814.79 1226.09 752.71 1237.08 689.10 1239.00
  L 658.77 1239.00
  Q 600.65 1237.20 548.51 1226.23
  C 477.69 1211.33 411.81 1185.29 351.02 1148.24
  Q 351.29 1147.75 351.62 1147.61
  C 356.53 1145.54 363.33 1143.08 369.09 1140.70
  C 412.48 1122.75 456.45 1105.84 501.51 1092.49
  C 543.23 1080.13 587.54 1071.47 630.25 1071.98
  Q 651.68 1072.23 678.87 1076.66
  Q 683.19 1077.36 698.24 1080.89
  Q 719.48 1085.86 742.72 1096.44
  C 794.96 1120.20 839.64 1160.09 875.05 1205.52
  Z"
/>
</svg>
